<svg xmlns="http://www.w3.org/2000/svg" viewBox="0 0 128 128">
  <path fill="#ffffff" d="M40.53 77.82V50.74h42.42v2.65H43.7v9.4h33.5v2.65H43.7v9.4h39.26v2.65H40.53zm41.42 9.34c-.8 0-1.39-.23-1.78-.7a2.44 2.44 0 0 1-.58-1.65c0-.7.2-1.27.58-1.7.4-.42.97-.63 1.73-.63.75 0 1.33.21 1.73.63.4.43.6.99.6 1.7 0 .66-.2 1.21-.6 1.65-.4.47-.98.7-1.73.7zm29.48-2.34H97.82L86.19 49.16c-.3-.73-.57-1.36-.8-1.9l-.24-.6h-.23c.05.85.08 2.2.08 4.06v34.1h-3.1V45.4h4.2l11.32 34.26c.47 1.13.8 1.92.97 2.35h.16c.13-.4.46-1.2.98-2.4l11.37-34.2h4.05v39.42h-3.23V50.58c0-1.76.03-3.03.08-3.8h-.23l-.25.64c-.14.36-.4 1-.8 1.9l-11.61 35.5zm-87.38 2.34c-.8 0-1.39-.23-1.78-.7a2.44 2.44 0 0 1-.58-1.65c0-.7.2-1.27.58-1.7.4-.42.97-.63 1.73-.63.75 0 1.33.21 1.73.63.4.43.6.99.6 1.7 0 .66-.2 1.21-.6 1.65-.4.47-.98.7-1.73.7z"></path>
</svg>

